<svg version="1.1" xmlns="http://www.w3.org/2000/svg" viewBox="0 0 735.2995209400381 430.66093561477624" width="735.2995209400381" height="430.66093561477624">
  <!-- svg-source:excalidraw -->
  
  <defs>
    <style>
      @font-face {
        font-family: "Virgil";
        src: url("https://excalidraw.com/Virgil.woff2");
      }
      @font-face {
        font-family: "Cascadia";
        src: url("https://excalidraw.com/Cascadia.woff2");
      }
    </style>
  </defs>
  <rect x="0" y="0" width="735.2995209400381" height="430.66093561477624" fill="#ffffff"></rect><g stroke-linecap="round" transform="translate(36.216691742316925 64.48410973285593) rotate(343.58593648075345 18.067222500388937 18.683150540174893)"><path d="M36.13 18.68 C36.13 19.76, 36.04 20.86, 35.86 21.93 C35.68 22.99, 35.4 24.06, 35.04 25.07 C34.69 26.09, 34.24 27.09, 33.71 28.02 C33.19 28.96, 32.58 29.86, 31.91 30.69 C31.24 31.52, 30.48 32.3, 29.68 33 C28.88 33.69, 28.01 34.32, 27.1 34.86 C26.2 35.4, 25.23 35.87, 24.25 36.24 C23.26 36.61, 22.23 36.89, 21.2 37.08 C20.17 37.27, 19.11 37.37, 18.07 37.37 C17.02 37.37, 15.96 37.27, 14.93 37.08 C13.9 36.89, 12.87 36.61, 11.89 36.24 C10.91 35.87, 9.94 35.4, 9.03 34.86 C8.13 34.32, 7.25 33.69, 6.45 33 C5.65 32.3, 4.9 31.52, 4.23 30.69 C3.55 29.86, 2.94 28.96, 2.42 28.02 C1.9 27.09, 1.45 26.09, 1.09 25.07 C0.73 24.06, 0.46 22.99, 0.27 21.93 C0.09 20.86, 0 19.76, 0 18.68 C0 17.6, 0.09 16.5, 0.27 15.44 C0.46 14.37, 0.73 13.31, 1.09 12.29 C1.45 11.28, 1.9 10.28, 2.42 9.34 C2.94 8.41, 3.55 7.5, 4.23 6.67 C4.9 5.85, 5.65 5.07, 6.45 4.37 C7.25 3.68, 8.13 3.04, 9.03 2.5 C9.94 1.96, 10.91 1.5, 11.89 1.13 C12.87 0.76, 13.9 0.47, 14.93 0.28 C15.96 0.1, 17.02 0, 18.07 0 C19.11 0, 20.17 0.1, 21.2 0.28 C22.23 0.47, 23.26 0.76, 24.25 1.13 C25.23 1.5, 26.2 1.96, 27.1 2.5 C28.01 3.04, 28.88 3.68, 29.68 4.37 C30.48 5.07, 31.24 5.85, 31.91 6.67 C32.58 7.5, 33.19 8.41, 33.71 9.34 C34.24 10.28, 34.69 11.28, 35.04 12.29 C35.4 13.31, 35.68 14.37, 35.86 15.44 C36.04 16.5, 36.09 18.14, 36.13 18.68 C36.18 19.22, 36.18 18.14, 36.13 18.68" stroke="#000000" stroke-width="2" fill="none"></path></g><g stroke-linecap="round"><g transform="translate(38.05921362709205 85.27723885166233) rotate(343.58593648075345 -3.969738448492251 3.349481701571108)"><path d="M0 0 C0.02 -0.71, 0.91 -3.63, 0.14 -4.24 C-0.64 -4.86, -3.26 -4.7, -4.65 -3.7 C-6.05 -2.69, -7.76 -0.05, -8.21 1.78 C-8.67 3.6, -8.21 5.86, -7.39 7.25 C-6.57 8.65, -4.54 9.58, -3.28 10.13 C-2.03 10.68, -0.41 12.23, 0.14 10.54 C0.68 8.85, 0.02 1.76, 0 0 M0 0 C0.02 -0.71, 0.91 -3.63, 0.14 -4.24 C-0.64 -4.86, -3.26 -4.7, -4.65 -3.7 C-6.05 -2.69, -7.76 -0.05, -8.21 1.78 C-8.67 3.6, -8.21 5.86, -7.39 7.25 C-6.57 8.65, -4.54 9.58, -3.28 10.13 C-2.03 10.68, -0.41 12.23, 0.14 10.54 C0.68 8.85, 0.02 1.76, 0 0" stroke="#000000" stroke-width="2" fill="none"></path></g></g><g stroke-linecap="round"><g transform="translate(73.55665747182991 72.58838958705223) rotate(343.58593648075345 3.877917335853624 3.349481701571108)"><path d="M0 0 C-0.02 -0.71, -0.89 -3.63, -0.13 -4.24 C0.62 -4.86, 3.19 -4.7, 4.55 -3.7 C5.91 -2.69, 7.58 -0.05, 8.02 1.78 C8.47 3.6, 8.02 5.86, 7.22 7.25 C6.42 8.65, 4.43 9.58, 3.21 10.13 C1.98 10.68, 0.4 12.23, -0.13 10.54 C-0.67 8.85, -0.02 1.76, 0 0 M0 0 C-0.02 -0.71, -0.89 -3.63, -0.13 -4.24 C0.62 -4.86, 3.19 -4.7, 4.55 -3.7 C5.91 -2.69, 7.58 -0.05, 8.02 1.78 C8.47 3.6, 8.02 5.86, 7.22 7.25 C6.42 8.65, 4.43 9.58, 3.21 10.13 C1.98 10.68, 0.4 12.23, -0.13 10.54 C-0.67 8.85, -0.02 1.76, 0 0" stroke="#000000" stroke-width="2" fill="none"></path></g></g><g stroke-linecap="round"><g transform="translate(29.65162452102345 76.48133742501966) rotate(343.58593648075345 20.31650754764462 -10.744522471822194)"><path d="M0 0 C0.14 -1.82, -0.82 -7.73, 0.82 -10.95 C2.46 -14.17, 6.57 -17.54, 9.85 -19.3 C13.14 -21.06, 16.9 -21.49, 20.53 -21.49 C24.16 -21.49, 28.72 -20.67, 31.62 -19.3 C34.51 -17.93, 36.5 -15.33, 37.91 -13.28 C39.33 -11.22, 39.62 -9.01, 40.1 -6.98 C40.58 -4.95, 40.67 -2.08, 40.79 -1.09 M0 0 C0.14 -1.82, -0.82 -7.73, 0.82 -10.95 C2.46 -14.17, 6.57 -17.54, 9.85 -19.3 C13.14 -21.06, 16.9 -21.49, 20.53 -21.49 C24.16 -21.49, 28.72 -20.67, 31.62 -19.3 C34.51 -17.93, 36.5 -15.33, 37.91 -13.28 C39.33 -11.22, 39.62 -9.01, 40.1 -6.98 C40.58 -4.95, 40.67 -2.08, 40.79 -1.09" stroke="#000000" stroke-width="2" fill="none"></path></g></g><g stroke-linecap="round"><g transform="translate(38.06817379355277 94.1539378860324) rotate(343.58593648075345 7.664882272892271 3.6550885374238646)"><path d="M0 0 C0.23 0.62, 0.51 2.65, 1.37 3.71 C2.22 4.78, 3.58 5.82, 5.13 6.41 C6.68 7, 8.98 7.48, 10.68 7.25 C12.38 7.03, 14.55 5.43, 15.33 5.06 M0 0 C0.23 0.62, 0.51 2.65, 1.37 3.71 C2.22 4.78, 3.58 5.82, 5.13 6.41 C6.68 7, 8.98 7.48, 10.68 7.25 C12.38 7.03, 14.55 5.43, 15.33 5.06" stroke="#000000" stroke-width="2" fill="none"></path></g></g><g stroke-linecap="round" transform="translate(51.74311184813928 94.35863582746094) rotate(343.58593648075345 3.284949545525251 1.5740383238975255)"><path d="M6.57 1.57 C6.57 1.67, 6.55 1.76, 6.52 1.85 C6.49 1.94, 6.44 2.03, 6.37 2.11 C6.31 2.2, 6.22 2.28, 6.13 2.36 C6.03 2.44, 5.92 2.52, 5.8 2.59 C5.68 2.66, 5.54 2.72, 5.4 2.78 C5.25 2.84, 5.09 2.89, 4.93 2.94 C4.76 2.98, 4.59 3.02, 4.41 3.05 C4.23 3.08, 4.04 3.11, 3.86 3.12 C3.67 3.14, 3.48 3.15, 3.28 3.15 C3.09 3.15, 2.9 3.14, 2.71 3.12 C2.53 3.11, 2.34 3.08, 2.16 3.05 C1.98 3.02, 1.81 2.98, 1.64 2.94 C1.48 2.89, 1.32 2.84, 1.17 2.78 C1.03 2.72, 0.89 2.66, 0.77 2.59 C0.65 2.52, 0.54 2.44, 0.44 2.36 C0.35 2.28, 0.26 2.2, 0.2 2.11 C0.13 2.03, 0.08 1.94, 0.05 1.85 C0.02 1.76, 0 1.67, 0 1.57 C0 1.48, 0.02 1.39, 0.05 1.3 C0.08 1.21, 0.13 1.12, 0.2 1.04 C0.26 0.95, 0.35 0.87, 0.44 0.79 C0.54 0.71, 0.65 0.63, 0.77 0.56 C0.89 0.49, 1.03 0.43, 1.17 0.37 C1.32 0.31, 1.48 0.26, 1.64 0.21 C1.81 0.17, 1.98 0.13, 2.16 0.09 C2.34 0.06, 2.53 0.04, 2.71 0.02 C2.9 0.01, 3.09 0, 3.28 0 C3.48 0, 3.67 0.01, 3.86 0.02 C4.04 0.04, 4.23 0.06, 4.41 0.09 C4.59 0.13, 4.76 0.17, 4.93 0.21 C5.09 0.26, 5.25 0.31, 5.4 0.37 C5.54 0.43, 5.68 0.49, 5.8 0.56 C5.92 0.63, 6.03 0.71, 6.13 0.79 C6.22 0.87, 6.31 0.95, 6.37 1.04 C6.44 1.12, 6.49 1.21, 6.52 1.3 C6.55 1.39, 6.56 1.53, 6.57 1.57 C6.58 1.62, 6.58 1.53, 6.57 1.57" stroke="#000000" stroke-width="2" fill="none"></path></g><g stroke-linecap="round"><g transform="translate(43.27977550009052 84.6549719408514) rotate(0 3.9640343991730447 -2.6340500183328572)"><path d="M0 0 C0.1 -0.6, 0.16 -2.72, 0.58 -3.59 C1.01 -4.46, 1.61 -5.03, 2.54 -5.2 C3.48 -5.37, 5.29 -5.21, 6.18 -4.61 C7.08 -4.02, 7.64 -2.12, 7.93 -1.62 M0 0 C0.1 -0.6, 0.16 -2.72, 0.58 -3.59 C1.01 -4.46, 1.61 -5.03, 2.54 -5.2 C3.48 -5.37, 5.29 -5.21, 6.18 -4.61 C7.08 -4.02, 7.64 -2.12, 7.93 -1.62" stroke="#000000" stroke-width="2" fill="none"></path></g></g><g stroke-linecap="round" transform="translate(27.696524376119896 112.30343061047608) rotate(0 27.68267240561596 16.625744943314544)"><path d="M0 0 C12.2 0, 24.4 0, 55.37 0 M0 0 C19.32 0, 38.64 0, 55.37 0 M55.37 0 C55.37 13.03, 55.37 26.07, 55.37 33.25 M55.37 0 C55.37 9.68, 55.37 19.35, 55.37 33.25 M55.37 33.25 C34 33.25, 12.63 33.25, 0 33.25 M55.37 33.25 C39.06 33.25, 22.76 33.25, 0 33.25 M0 33.25 C0 23.53, 0 13.81, 0 0 M0 33.25 C0 22.98, 0 12.7, 0 0" stroke="#000000" stroke-width="2" fill="none"></path></g><g stroke-linecap="round" transform="translate(52.872308566598804 125.57344267049564) rotate(0 2.7440549906441447 2.7440549906441447)"><path d="M5.49 2.74 C5.49 2.9, 5.47 3.06, 5.45 3.22 C5.42 3.38, 5.38 3.53, 5.32 3.68 C5.27 3.83, 5.2 3.98, 5.12 4.12 C5.04 4.25, 4.95 4.39, 4.85 4.51 C4.74 4.63, 4.63 4.74, 4.51 4.85 C4.39 4.95, 4.25 5.04, 4.12 5.12 C3.98 5.2, 3.83 5.27, 3.68 5.32 C3.53 5.38, 3.38 5.42, 3.22 5.45 C3.06 5.47, 2.9 5.49, 2.74 5.49 C2.59 5.49, 2.42 5.47, 2.27 5.45 C2.11 5.42, 1.95 5.38, 1.81 5.32 C1.66 5.27, 1.51 5.2, 1.37 5.12 C1.23 5.04, 1.1 4.95, 0.98 4.85 C0.86 4.74, 0.74 4.63, 0.64 4.51 C0.54 4.39, 0.45 4.25, 0.37 4.12 C0.29 3.98, 0.22 3.83, 0.17 3.68 C0.11 3.53, 0.07 3.38, 0.04 3.22 C0.01 3.06, 0 2.9, 0 2.74 C0 2.59, 0.01 2.42, 0.04 2.27 C0.07 2.11, 0.11 1.95, 0.17 1.81 C0.22 1.66, 0.29 1.51, 0.37 1.37 C0.45 1.23, 0.54 1.1, 0.64 0.98 C0.74 0.86, 0.86 0.74, 0.98 0.64 C1.1 0.54, 1.23 0.45, 1.37 0.37 C1.51 0.29, 1.66 0.22, 1.81 0.17 C1.95 0.11, 2.11 0.07, 2.27 0.04 C2.42 0.01, 2.59 0, 2.74 0 C2.9 0, 3.06 0.01, 3.22 0.04 C3.38 0.07, 3.53 0.11, 3.68 0.17 C3.83 0.22, 3.98 0.29, 4.12 0.37 C4.25 0.45, 4.39 0.54, 4.51 0.64 C4.63 0.74, 4.74 0.86, 4.85 0.98 C4.95 1.1, 5.04 1.23, 5.12 1.37 C5.2 1.51, 5.27 1.66, 5.32 1.81 C5.38 1.95, 5.42 2.11, 5.45 2.27 C5.47 2.42, 5.48 2.66, 5.49 2.74 C5.5 2.82, 5.5 2.66, 5.49 2.74" stroke="#000000" stroke-width="2" fill="none"></path></g><g stroke-linecap="round"><g transform="translate(28.352375209745674 56.02656350284167) rotate(0 -1.3411623098511996 -6.957952562841854)"><path d="M0 0 C0.6 -0.24, 3.09 -0.83, 3.6 -1.46 C4.11 -2.1, 3.04 -2.94, 3.05 -3.83 C3.07 -4.71, 3.7 -5.51, 3.7 -6.77 C3.71 -8.03, 3.97 -10.18, 3.08 -11.37 C2.19 -12.56, -0.12 -13.83, -1.64 -13.91 C-3.15 -13.99, -5.3 -13.22, -6.01 -11.85 C-6.73 -10.49, -6.39 -7.21, -5.92 -5.72 C-5.46 -4.24, -4.1 -3.64, -3.23 -2.94 C-2.36 -2.24, -1.22 -2.01, -0.68 -1.52 C-0.14 -1.03, -0.11 -0.25, 0 0 M0 0 C0.6 -0.24, 3.09 -0.83, 3.6 -1.46 C4.11 -2.1, 3.04 -2.94, 3.05 -3.83 C3.07 -4.71, 3.7 -5.51, 3.7 -6.77 C3.71 -8.03, 3.97 -10.18, 3.08 -11.37 C2.19 -12.56, -0.12 -13.83, -1.64 -13.91 C-3.15 -13.99, -5.3 -13.22, -6.01 -11.85 C-6.73 -10.49, -6.39 -7.21, -5.92 -5.72 C-5.46 -4.24, -4.1 -3.64, -3.23 -2.94 C-2.36 -2.24, -1.22 -2.01, -0.68 -1.52 C-0.14 -1.03, -0.11 -0.25, 0 0" stroke="#000000" stroke-width="2" fill="none"></path></g></g><g stroke-linecap="round"><g transform="translate(22.612068605130844 55.39034349279257) rotate(0 -1.7836818709828322 2.934444368391098)"><path d="M0 0 C-0.59 0.98, -2.97 4.89, -3.57 5.87 M0 0 C-0.59 0.98, -2.97 4.89, -3.57 5.87" stroke="#000000" stroke-width="2" fill="none"></path></g></g><g stroke-linecap="round"><g transform="translate(17.710108732635376 49.36335773376379) rotate(0 -3.855054366317688 0.17261437461124274)"><path d="M0 0 C-1.29 0.06, -6.43 0.29, -7.71 0.35 M0 0 C-1.29 0.06, -6.43 0.29, -7.71 0.35" stroke="#000000" stroke-width="2" fill="none"></path></g></g><g stroke-linecap="round"><g transform="translate(20.686369850106644 43.25682750642511) rotate(0 -2.8193681186502317 -2.4741393694277747)"><path d="M0 0 C-0.94 -0.82, -4.7 -4.12, -5.64 -4.95 M0 0 C-0.94 -0.82, -4.7 -4.12, -5.64 -4.95" stroke="#000000" stroke-width="2" fill="none"></path></g></g><g stroke-linecap="round"><g transform="translate(29.630966609955294 40.27925775844818) rotate(0 0.6329193735745662 -3.509825617095231)"><path d="M0 0 C0.21 -1.17, 1.05 -5.85, 1.27 -7.02 M0 0 C0.21 -1.17, 1.05 -5.85, 1.27 -7.02" stroke="#000000" stroke-width="2" fill="none"></path></g></g><g stroke-linecap="round"><g transform="translate(34.182290696621294 45.798316331815045) rotate(0 3.9701306160585546 -0.11507624974083797)"><path d="M0 0 C1.32 -0.04, 6.62 -0.19, 7.94 -0.23 M0 0 C1.32 -0.04, 6.62 -0.19, 7.94 -0.23" stroke="#000000" stroke-width="2" fill="none"></path></g></g><g stroke-linecap="round"><g transform="translate(25.43654017907386 46.874709717198925) rotate(0 0.1137051762643182 2.218210916389978)"><path d="M0 0 C-0.1 0.42, -0.76 1.76, -0.62 2.5 C-0.48 3.23, 0.62 4.11, 0.87 4.44 M0 0 C-0.1 0.42, -0.76 1.76, -0.62 2.5 C-0.48 3.23, 0.62 4.11, 0.87 4.44" stroke="#000000" stroke-width="2" fill="none"></path></g></g><g stroke-linecap="round"><g transform="translate(27.924321059737508 59.024591190730575) rotate(0 2.0376628012603533 -1.0191031292201274)"><path d="M0 0 C0.68 -0.34, 3.4 -1.7, 4.08 -2.04 M0 0 C0.68 -0.34, 3.4 -1.7, 4.08 -2.04" stroke="#000000" stroke-width="2" fill="none"></path></g></g><g stroke-linecap="round"><g transform="translate(30.024305215252184 59.326062108444034) rotate(0 1.3233768720195371 -0.7479956233153757)"><path d="M0 0 C0.44 -0.25, 2.21 -1.25, 2.65 -1.5 M0 0 C0.44 -0.25, 2.21 -1.25, 2.65 -1.5" stroke="#000000" stroke-width="2" fill="none"></path></g></g><g stroke-linecap="round"><g transform="translate(29.378671965803164 60.64439269284901) rotate(0 0.9781481227970517 -0.6329193735745378)"><path d="M0 0 C0.33 -0.21, 1.63 -1.05, 1.96 -1.27 M0 0 C0.33 -0.21, 1.63 -1.05, 1.96 -1.27" stroke="#000000" stroke-width="2" fill="none"></path></g></g><g stroke-linecap="round"><g transform="translate(63.26669115766413 80.50118273719511) rotate(332.851350188029 -3.766432691713476 -2.6340500183328572)"><path d="M0 0 C-0.09 -0.6, -0.15 -2.72, -0.55 -3.59 C-0.96 -4.46, -1.53 -5.03, -2.42 -5.2 C-3.3 -5.37, -5.02 -5.21, -5.88 -4.61 C-6.73 -4.02, -7.26 -2.12, -7.53 -1.62 M0 0 C-0.09 -0.6, -0.15 -2.72, -0.55 -3.59 C-0.96 -4.46, -1.53 -5.03, -2.42 -5.2 C-3.3 -5.37, -5.02 -5.21, -5.88 -4.61 C-6.73 -4.02, -7.26 -2.12, -7.53 -1.62" stroke="#000000" stroke-width="2" fill="none"></path></g></g><g stroke-linecap="round"><g transform="translate(83.63805198822729 144.83360860801326) rotate(0 -28.281208611951456 1.3209254987113468)"><path d="M0 0 C1.28 0.1, 6.68 0.04, 7.71 0.57 C8.74 1.11, 7.83 2.77, 6.2 3.21 C4.56 3.65, 1.74 3.12, -2.12 3.21 C-5.97 3.31, -11.66 3.71, -16.93 3.79 C-22.19 3.86, -26.82 3.79, -33.71 3.67 C-40.59 3.56, -53.07 3.73, -58.23 3.1 C-63.4 2.47, -64.35 0.6, -64.69 -0.11 C-65.03 -0.83, -60.99 -1, -60.25 -1.17 M0 0 C1.28 0.1, 6.68 0.04, 7.71 0.57 C8.74 1.11, 7.83 2.77, 6.2 3.21 C4.56 3.65, 1.74 3.12, -2.12 3.21 C-5.97 3.31, -11.66 3.71, -16.93 3.79 C-22.19 3.86, -26.82 3.79, -33.71 3.67 C-40.59 3.56, -53.07 3.73, -58.23 3.1 C-63.4 2.47, -64.35 0.6, -64.69 -0.11 C-65.03 -0.83, -60.99 -1, -60.25 -1.17" stroke="#000000" stroke-width="2" fill="none"></path></g></g><g stroke-linecap="round"><g transform="translate(53.72224062772955 108.89615017905214) rotate(0 1.762893313339589 -4.069562702990197)"><path d="M0 0 C-2.49 0.03, -11.52 0.16, -14.91 0.19 C-18.3 0.23, -21.08 0.74, -20.36 0.19 C-19.64 -0.35, -12.93 -2.15, -10.58 -3.09 C-8.23 -4.02, -8.44 -5.11, -6.25 -5.4 C-4.06 -5.69, -0.29 -4.92, 2.57 -4.82 C5.42 -4.73, 8.36 -4.18, 10.9 -4.82 C13.44 -5.46, 16.17 -8.26, 17.8 -8.68 C19.43 -9.1, 19.67 -8.42, 20.68 -7.33 C21.7 -6.24, 24.61 -3.44, 23.89 -2.12 C23.17 -0.8, 18.73 0.23, 16.35 0.58 C13.97 0.93, 10.74 0.1, 9.62 0 M0 0 C-2.49 0.03, -11.52 0.16, -14.91 0.19 C-18.3 0.23, -21.08 0.74, -20.36 0.19 C-19.64 -0.35, -12.93 -2.15, -10.58 -3.09 C-8.23 -4.02, -8.44 -5.11, -6.25 -5.4 C-4.06 -5.69, -0.29 -4.92, 2.57 -4.82 C5.42 -4.73, 8.36 -4.18, 10.9 -4.82 C13.44 -5.46, 16.17 -8.26, 17.8 -8.68 C19.43 -9.1, 19.67 -8.42, 20.68 -7.33 C21.7 -6.24, 24.61 -3.44, 23.89 -2.12 C23.17 -0.8, 18.73 0.23, 16.35 0.58 C13.97 0.93, 10.74 0.1, 9.62 0" stroke="#000000" stroke-width="2" fill="none"></path></g></g><g stroke-linecap="round" transform="translate(223.18002697642987 11.5) rotate(0 100 116.20454276499976)"><path d="M0 0 C0 0, 0 0, 0 0 M0 0 C0 0, 0 0, 0 0 M-0.26 6.4 C0.86 5.1, 1.99 3.81, 4.99 0.36 M-0.26 6.4 C1.75 4.08, 3.76 1.77, 4.99 0.36 M0.13 12.04 C4.23 7.32, 8.33 2.61, 10.63 -0.03 M0.13 12.04 C3.39 8.29, 6.65 4.55, 10.63 -0.03 M-0.13 18.44 C5.15 12.37, 10.42 6.3, 15.62 0.33 M-0.13 18.44 C4.96 12.58, 10.05 6.73, 15.62 0.33 M0.27 24.08 C8.25 14.9, 16.24 5.71, 21.26 -0.07 M0.27 24.08 C6.94 16.41, 13.61 8.73, 21.26 -0.07 M0 30.48 C7.07 22.36, 14.13 14.23, 26.25 0.29 M0 30.48 C7.13 22.28, 14.25 14.09, 26.25 0.29 M-0.26 36.88 C10.07 24.99, 20.41 13.11, 31.89 -0.1 M-0.26 36.88 C11.77 23.04, 23.8 9.21, 31.89 -0.1 M0.14 42.52 C7.64 33.89, 15.14 25.26, 36.88 0.26 M0.14 42.52 C13.35 27.32, 26.57 12.11, 36.88 0.26 M-0.12 48.92 C12.66 34.21, 25.45 19.5, 42.52 -0.14 M-0.12 48.92 C10.01 37.27, 20.13 25.61, 42.52 -0.14 M0.27 54.56 C13.26 39.62, 26.24 24.68, 47.51 0.22 M0.27 54.56 C10.81 42.44, 21.34 30.32, 47.51 0.22 M0.01 60.96 C13.23 45.75, 26.45 30.55, 53.15 -0.17 M0.01 60.96 C14.34 44.47, 28.67 27.99, 53.15 -0.17 M-0.25 67.36 C20.92 43, 42.09 18.65, 58.14 0.19 M-0.25 67.36 C23.08 40.52, 46.41 13.68, 58.14 0.19 M0.14 73 C22.28 47.53, 44.42 22.07, 63.78 -0.21 M0.14 73 C15.11 55.78, 30.09 38.55, 63.78 -0.21 M-0.12 79.4 C20.23 55.99, 40.58 32.58, 68.77 0.15 M-0.12 79.4 C22.65 53.2, 45.42 27.01, 68.77 0.15 M0.28 85.04 C16.87 65.95, 33.47 46.85, 74.41 -0.24 M0.28 85.04 C22.67 59.28, 45.07 33.51, 74.41 -0.24 M0.01 91.44 C19.75 68.73, 39.49 46.02, 79.4 0.12 M0.01 91.44 C28.62 58.53, 57.23 25.62, 79.4 0.12 M-0.25 97.84 C29.64 63.45, 59.53 29.07, 85.04 -0.28 M-0.25 97.84 C20.32 74.18, 40.89 50.52, 85.04 -0.28 M0.15 103.48 C31.09 67.88, 62.03 32.29, 90.03 0.08 M0.15 103.48 C30.4 68.68, 60.64 33.89, 90.03 0.08 M-0.11 109.88 C23.64 82.55, 47.39 55.23, 95.67 -0.31 M-0.11 109.88 C21.58 84.93, 43.27 59.97, 95.67 -0.31 M0.28 115.52 C25.49 86.52, 50.71 57.51, 100.66 0.05 M0.28 115.52 C21.33 91.31, 42.37 67.1, 100.66 0.05 M0.02 121.92 C30.19 87.22, 60.35 52.51, 106.3 -0.34 M0.02 121.92 C25.02 93.16, 50.02 64.4, 106.3 -0.34 M-0.24 128.32 C42.71 78.9, 85.67 29.49, 111.29 0.02 M-0.24 128.32 C25.81 98.35, 51.85 68.39, 111.29 0.02 M0.15 133.96 C31.76 97.6, 63.37 61.24, 116.27 0.38 M0.15 133.96 C28.93 100.86, 57.7 67.76, 116.27 0.38 M-0.11 140.36 C37.57 97.01, 75.26 53.66, 121.92 -0.02 M-0.11 140.36 C44.44 89.11, 88.98 37.87, 121.92 -0.02 M0.29 146 C35 106.06, 69.72 66.13, 126.91 0.34 M0.29 146 C31.64 109.93, 62.99 73.87, 126.91 0.34 M0.02 152.4 C43.98 101.83, 87.94 51.26, 132.55 -0.05 M0.02 152.4 C35.04 112.12, 70.05 71.85, 132.55 -0.05 M-0.24 158.8 C54.55 95.76, 109.35 32.73, 137.54 0.31 M-0.24 158.8 C30.24 123.73, 60.72 88.67, 137.54 0.31 M0.16 164.44 C44.52 113.4, 88.89 62.37, 143.18 -0.09 M0.16 164.44 C42.22 116.05, 84.28 67.67, 143.18 -0.09 M-0.1 170.84 C58.85 103.02, 117.81 35.19, 148.17 0.27 M-0.1 170.84 C53.03 109.71, 106.16 48.59, 148.17 0.27 M0.29 176.48 C38.3 132.75, 76.31 89.03, 153.81 -0.12 M0.29 176.48 C49.57 119.79, 98.85 63.09, 153.81 -0.12 M0.03 182.88 C43.79 132.53, 87.56 82.18, 158.8 0.24 M0.03 182.88 C40.01 136.89, 79.99 90.9, 158.8 0.24 M-0.23 189.27 C48.19 133.57, 96.61 77.87, 164.44 -0.16 M-0.23 189.27 C51.53 129.72, 103.3 70.17, 164.44 -0.16 M0.16 194.92 C47.62 140.32, 95.08 85.73, 169.43 0.2 M0.16 194.92 C50.52 136.98, 100.89 79.05, 169.43 0.2 M-0.1 201.32 C60.6 131.49, 121.31 61.66, 175.07 -0.19 M-0.1 201.32 C60.62 131.47, 121.34 61.62, 175.07 -0.19 M0.3 206.96 C55.53 143.42, 110.76 79.88, 180.06 0.17 M0.3 206.96 C53.26 146.03, 106.22 85.11, 180.06 0.17 M0.03 213.36 C46.26 160.18, 92.49 106.99, 185.7 -0.23 M0.03 213.36 C73.08 129.32, 146.13 45.29, 185.7 -0.23 M-0.23 219.75 C56.78 154.17, 113.79 88.59, 190.69 0.13 M-0.23 219.75 C46.59 165.89, 93.42 112.03, 190.69 0.13 M0.17 225.4 C77.1 136.9, 154.03 48.4, 196.33 -0.26 M0.17 225.4 C65.61 150.12, 131.04 74.84, 196.33 -0.26 M-0.09 231.8 C48.82 175.52, 97.74 119.25, 200.66 0.85 M-0.09 231.8 C71.12 149.87, 142.34 67.94, 200.66 0.85 M2.92 234.42 C65.08 162.91, 127.25 91.4, 201.05 6.5 M2.92 234.42 C72.06 154.89, 141.19 75.36, 201.05 6.5 M7.91 234.78 C80.91 150.8, 153.92 66.82, 200.79 12.89 M7.91 234.78 C52.58 183.4, 97.24 132.02, 200.79 12.89 M13.55 234.38 C69.31 170.25, 125.06 106.11, 200.53 19.29 M13.55 234.38 C74.23 164.59, 134.9 94.79, 200.53 19.29 M18.54 234.74 C88.95 153.75, 159.36 72.75, 200.93 24.94 M18.54 234.74 C70.94 174.47, 123.33 114.2, 200.93 24.94 M24.18 234.35 C90.71 157.83, 157.23 81.3, 200.66 31.33 M24.18 234.35 C68.02 183.92, 111.86 133.49, 200.66 31.33 M29.17 234.71 C97.27 156.37, 165.37 78.04, 201.06 36.98 M29.17 234.71 C87.02 168.16, 144.87 101.61, 201.06 36.98 M34.16 235.07 C88.86 172.15, 143.56 109.22, 200.8 43.37 M34.16 235.07 C69.47 194.45, 104.78 153.83, 200.8 43.37 M39.8 234.68 C101.78 163.38, 163.75 92.09, 200.54 49.77 M39.8 234.68 C103.65 161.22, 167.51 87.77, 200.54 49.77 M44.79 235.04 C88.08 185.23, 131.38 135.43, 200.93 55.42 M44.79 235.04 C77.49 197.42, 110.18 159.81, 200.93 55.42 M50.43 234.64 C107.2 169.34, 163.97 104.04, 200.67 61.81 M50.43 234.64 C94.05 184.47, 137.66 134.29, 200.67 61.81 M55.42 235 C98.53 185.4, 141.65 135.81, 201.06 67.46 M55.42 235 C104.71 178.3, 153.99 121.6, 201.06 67.46 M61.06 234.61 C95.08 195.47, 129.1 156.34, 200.8 73.85 M61.06 234.61 C94.57 196.06, 128.08 157.51, 200.8 73.85 M66.05 234.97 C93.41 203.5, 120.76 172.03, 200.54 80.25 M66.05 234.97 C119.78 173.15, 173.52 111.34, 200.54 80.25 M71.69 234.57 C110.42 190.02, 149.15 145.46, 200.94 85.89 M71.69 234.57 C106.96 194, 142.23 153.42, 200.94 85.89 M76.68 234.93 C121.96 182.84, 167.24 130.75, 200.67 92.29 M76.68 234.93 C113.45 192.63, 150.23 150.33, 200.67 92.29 M82.32 234.54 C119.23 192.08, 156.13 149.63, 201.07 97.94 M82.32 234.54 C108.44 204.49, 134.56 174.44, 201.07 97.94 M87.31 234.9 C120.68 196.51, 154.05 158.12, 200.81 104.33 M87.31 234.9 C114.14 204.03, 140.97 173.17, 200.81 104.33 M92.95 234.5 C123.92 198.88, 154.89 163.25, 200.55 110.73 M92.95 234.5 C126.78 195.59, 160.61 156.67, 200.55 110.73 M97.94 234.86 C123.63 205.31, 149.32 175.76, 200.94 116.37 M97.94 234.86 C131.83 195.88, 165.71 156.9, 200.94 116.37 M103.58 234.47 C131.62 202.21, 159.67 169.95, 200.68 122.77 M103.58 234.47 C141.72 190.59, 179.87 146.72, 200.68 122.77 M108.57 234.83 C130.56 209.53, 152.56 184.23, 201.07 128.42 M108.57 234.83 C144.42 193.59, 180.26 152.35, 201.07 128.42 M114.21 234.43 C133.13 212.67, 152.06 190.9, 200.81 134.81 M114.21 234.43 C139.75 205.06, 165.29 175.68, 200.81 134.81 M119.2 234.79 C136.48 214.92, 153.75 195.05, 200.55 141.21 M119.2 234.79 C145.9 204.08, 172.6 173.36, 200.55 141.21 M124.84 234.4 C142.24 214.38, 159.64 194.36, 200.95 146.85 M124.84 234.4 C144.89 211.33, 164.94 188.27, 200.95 146.85 M129.83 234.76 C149.2 212.48, 168.56 190.2, 200.68 153.25 M129.83 234.76 C156.08 204.56, 182.33 174.36, 200.68 153.25 M135.47 234.37 C156.32 210.38, 177.18 186.39, 201.08 158.89 M135.47 234.37 C158.07 208.37, 180.67 182.37, 201.08 158.89 M140.46 234.73 C156.62 216.14, 172.78 197.55, 200.82 165.29 M140.46 234.73 C154.76 218.28, 169.05 201.83, 200.82 165.29 M145.45 235.09 C163.72 214.07, 181.99 193.05, 200.56 171.69 M145.45 235.09 C166.77 210.55, 188.1 186.02, 200.56 171.69 M151.09 234.69 C170.51 212.36, 189.92 190.02, 200.95 177.33 M151.09 234.69 C168.69 214.45, 186.29 194.2, 200.95 177.33 M156.08 235.05 C172.23 216.47, 188.38 197.89, 200.69 183.73 M156.08 235.05 C166.93 222.57, 177.77 210.09, 200.69 183.73 M161.72 234.66 C176.64 217.49, 191.57 200.32, 201.08 189.37 M161.72 234.66 C171.46 223.45, 181.2 212.24, 201.08 189.37 M166.71 235.02 C178.6 221.34, 190.49 207.66, 200.82 195.77 M166.71 235.02 C179.28 220.56, 191.84 206.1, 200.82 195.77 M172.35 234.62 C181.51 224.09, 190.67 213.55, 200.56 202.17 M172.35 234.62 C182.29 223.19, 192.23 211.75, 200.56 202.17 M177.34 234.98 C183.88 227.45, 190.43 219.92, 200.95 207.81 M177.34 234.98 C182.56 228.97, 187.78 222.97, 200.95 207.81 M182.98 234.59 C187.59 229.28, 192.2 223.98, 200.69 214.21 M182.98 234.59 C186.57 230.46, 190.16 226.33, 200.69 214.21 M187.97 234.95 C192.97 229.2, 197.96 223.45, 201.09 219.85 M187.97 234.95 C191.42 230.98, 194.87 227.01, 201.09 219.85 M193.61 234.55 C196.26 231.5, 198.92 228.45, 200.83 226.25 M193.61 234.55 C195.32 232.59, 197.02 230.63, 200.83 226.25" stroke="#82c91e" stroke-width="0.5" fill="none"></path><path d="M0 0 C74.37 0, 148.75 0, 200 0 M0 0 C48.46 0, 96.92 0, 200 0 M200 0 C200 92.2, 200 184.4, 200 232.41 M200 0 C200 73.34, 200 146.68, 200 232.41 M200 232.41 C128.94 232.41, 57.88 232.41, 0 232.41 M200 232.41 C155.37 232.41, 110.74 232.41, 0 232.41 M0 232.41 C0 170.56, 0 108.72, 0 0 M0 232.41 C0 180.71, 0 129, 0 0" stroke="#5c940d" stroke-width="1" fill="none"></path></g><g stroke-opacity="0.6" fill-opacity="0.6" stroke-linecap="round" transform="translate(237.29952094003806 81.5) rotate(0 79.5 30)"><path d="M15 0 L144 0 L150.56 0.94 L155.25 3.75 L156.89 5.86 L158.77 11.48 L159 45 L158.06 51.56 L156.89 54.14 L153.14 57.89 L150.56 59.06 L144 60 L15 60 L8.44 59.06 L3.75 56.25 L2.11 54.14 L0.23 48.52 L0.23 11.48 L2.11 5.86 L3.75 3.75 L8.44 0.94 L15 0" stroke="none" stroke-width="0" fill="#228be6"></path><path d="M15 0 M15 0 C49 0, 83 0, 144 0 M15 0 C47.04 0, 79.07 0, 144 0 M144 0 C154 0, 159 5, 159 15 M144 0 C154 0, 159 5, 159 15 M159 15 C159 22.26, 159 29.52, 159 45 M159 15 C159 26.48, 159 37.97, 159 45 M159 45 C159 55, 154 60, 144 60 M159 45 C159 55, 154 60, 144 60 M144 60 C102.72 60, 61.44 60, 15 60 M144 60 C98.9 60, 53.8 60, 15 60 M15 60 C5 60, 0 55, 0 45 M15 60 C5 60, 0 55, 0 45 M0 45 C0 35.84, 0 26.67, 0 15 M0 45 C0 35.28, 0 25.57, 0 15 M0 15 C0 5, 5 0, 15 0 M0 15 C0 5, 5 0, 15 0" stroke="#1864ab" stroke-width="1" fill="none"></path></g><g transform="translate(248.29952094003806 94.5) rotate(0 70 12.5)"><text x="0" y="18" font-family="Virgil, Segoe UI Emoji" font-size="20px" fill="#364fc7" text-anchor="start" style="white-space: pre;" direction="ltr">quarkus-zeebe</text></g><g stroke-linecap="round" transform="translate(525.2995209400381 10) rotate(0 100 73.5)"><path d="M0 0 C0 0, 0 0, 0 0 M0 0 C0 0, 0 0, 0 0 M-0.26 6.4 C1.21 4.71, 2.67 3.02, 4.99 0.36 M-0.26 6.4 C1.62 4.23, 3.5 2.07, 4.99 0.36 M0.13 12.04 C2.82 8.95, 5.51 5.85, 10.63 -0.03 M0.13 12.04 C2.29 9.56, 4.44 7.09, 10.63 -0.03 M-0.13 18.44 C5.72 11.71, 11.57 4.98, 15.62 0.33 M-0.13 18.44 C3.52 14.24, 7.17 10.04, 15.62 0.33 M0.27 24.08 C8.29 14.85, 16.31 5.63, 21.26 -0.07 M0.27 24.08 C7.71 15.52, 15.15 6.96, 21.26 -0.07 M0 30.48 C7 22.43, 13.99 14.39, 26.25 0.29 M0 30.48 C9.39 19.68, 18.78 8.88, 26.25 0.29 M-0.26 36.88 C12.41 22.31, 25.07 7.74, 31.89 -0.1 M-0.26 36.88 C7.02 28.5, 14.31 20.13, 31.89 -0.1 M0.14 42.52 C10.89 30.15, 21.64 17.79, 36.88 0.26 M0.14 42.52 C10.32 30.81, 20.5 19.1, 36.88 0.26 M-0.12 48.92 C9.2 38.19, 18.53 27.46, 42.52 -0.14 M-0.12 48.92 C12.19 34.75, 24.5 20.59, 42.52 -0.14 M0.27 54.56 C15.62 36.9, 30.97 19.24, 47.51 0.22 M0.27 54.56 C11.34 41.82, 22.42 29.09, 47.51 0.22 M0.01 60.96 C12.23 46.91, 24.44 32.85, 53.15 -0.17 M0.01 60.96 C11.29 47.98, 22.57 35, 53.15 -0.17 M-0.25 67.36 C22.27 41.45, 44.79 15.54, 58.14 0.19 M-0.25 67.36 C21.77 42.03, 43.78 16.7, 58.14 0.19 M0.14 73 C15.92 54.85, 31.7 36.69, 63.78 -0.21 M0.14 73 C17.4 53.15, 34.66 33.3, 63.78 -0.21 M-0.12 79.4 C16.67 60.09, 33.45 40.78, 68.77 0.15 M-0.12 79.4 C24.39 51.2, 48.9 23, 68.77 0.15 M0.28 85.04 C25.51 56.02, 50.74 26.99, 74.41 -0.24 M0.28 85.04 C25.67 55.83, 51.07 26.61, 74.41 -0.24 M0.01 91.44 C17.05 71.84, 34.09 52.24, 79.4 0.12 M0.01 91.44 C25.76 61.82, 51.51 32.2, 79.4 0.12 M-0.25 97.84 C18.62 76.14, 37.48 54.44, 85.04 -0.28 M-0.25 97.84 C25.92 67.73, 52.09 37.63, 85.04 -0.28 M0.15 103.48 C32.61 66.13, 65.08 28.78, 90.03 0.08 M0.15 103.48 C30.67 68.37, 61.19 33.26, 90.03 0.08 M-0.11 109.88 C23.98 82.16, 48.07 54.45, 95.67 -0.31 M-0.11 109.88 C23.58 82.62, 47.28 55.36, 95.67 -0.31 M0.28 115.52 C29.69 81.69, 59.1 47.86, 100.66 0.05 M0.28 115.52 C36.56 73.78, 72.85 32.04, 100.66 0.05 M0.02 121.92 C25.46 92.65, 50.91 63.38, 106.3 -0.34 M0.02 121.92 C26.67 91.25, 53.33 60.59, 106.3 -0.34 M-0.24 128.32 C40.61 81.32, 81.46 34.33, 111.29 0.02 M-0.24 128.32 C28 95.83, 56.24 63.34, 111.29 0.02 M0.15 133.96 C27.97 101.95, 55.8 69.95, 116.27 0.38 M0.15 133.96 C24.17 106.33, 48.18 78.71, 116.27 0.38 M-0.11 140.36 C34.6 100.43, 69.31 60.5, 121.92 -0.02 M-0.11 140.36 C46.39 86.87, 92.89 33.38, 121.92 -0.02 M0.29 146 C45.09 94.46, 89.89 42.92, 126.91 0.34 M0.29 146 C26.65 115.68, 53.01 85.35, 126.91 0.34 M2.65 149.38 C41.3 104.92, 79.95 60.46, 132.55 -0.05 M2.65 149.38 C30.49 117.35, 58.34 85.31, 132.55 -0.05 M8.29 148.98 C51.03 99.82, 93.77 50.65, 137.54 0.31 M8.29 148.98 C53.65 96.81, 99 44.64, 137.54 0.31 M13.28 149.34 C39.6 119.06, 65.93 88.78, 143.18 -0.09 M13.28 149.34 C55.58 100.68, 97.88 52.02, 143.18 -0.09 M18.27 149.7 C65.76 95.06, 113.26 40.42, 148.17 0.27 M18.27 149.7 C61.66 99.78, 105.05 49.86, 148.17 0.27 M23.91 149.31 C68.55 97.96, 113.19 46.6, 153.81 -0.12 M23.91 149.31 C74.64 90.95, 125.38 32.58, 153.81 -0.12 M28.9 149.67 C68 104.69, 107.1 59.7, 158.8 0.24 M28.9 149.67 C62.65 110.85, 96.4 72.02, 158.8 0.24 M34.54 149.28 C61.99 117.7, 89.44 86.12, 164.44 -0.16 M34.54 149.28 C84.92 91.32, 135.31 33.36, 164.44 -0.16 M39.53 149.64 C68.89 115.86, 98.25 82.08, 169.43 0.2 M39.53 149.64 C69.86 114.74, 100.19 79.85, 169.43 0.2 M45.17 149.24 C76.77 112.88, 108.38 76.52, 175.07 -0.19 M45.17 149.24 C97.05 89.55, 148.94 29.87, 175.07 -0.19 M50.16 149.6 C86.11 108.25, 122.05 66.89, 180.06 0.17 M50.16 149.6 C97.38 95.27, 144.61 40.95, 180.06 0.17 M55.8 149.21 C84.91 115.71, 114.03 82.22, 185.7 -0.23 M55.8 149.21 C83.11 117.79, 110.42 86.37, 185.7 -0.23 M60.79 149.57 C91.46 114.28, 122.13 78.99, 190.69 0.13 M60.79 149.57 C107.75 95.54, 154.72 41.5, 190.69 0.13 M66.43 149.17 C103.47 106.56, 140.52 63.94, 196.33 -0.26 M66.43 149.17 C106.5 103.07, 146.58 56.97, 196.33 -0.26 M71.42 149.53 C114.59 99.87, 157.76 50.2, 200.66 0.85 M71.42 149.53 C115.65 98.65, 159.88 47.77, 200.66 0.85 M77.06 149.14 C114.84 105.67, 152.63 62.21, 201.05 6.5 M77.06 149.14 C112.45 108.43, 147.84 67.71, 201.05 6.5 M82.05 149.5 C111.39 115.74, 140.74 81.98, 200.79 12.89 M82.05 149.5 C108.57 118.98, 135.1 88.47, 200.79 12.89 M87.69 149.1 C122.43 109.13, 157.18 69.16, 200.53 19.29 M87.69 149.1 C114.25 118.55, 140.81 87.99, 200.53 19.29 M92.68 149.46 C125.05 112.22, 157.42 74.98, 200.93 24.94 M92.68 149.46 C127.96 108.88, 163.24 68.29, 200.93 24.94 M98.32 149.07 C125.62 117.66, 152.93 86.25, 200.66 31.33 M98.32 149.07 C134.75 107.17, 171.17 65.26, 200.66 31.33 M103.31 149.43 C128.74 120.17, 154.18 90.9, 201.06 36.98 M103.31 149.43 C139.86 107.38, 176.42 65.32, 201.06 36.98 M108.95 149.03 C136.52 117.31, 164.1 85.59, 200.8 43.37 M108.95 149.03 C140.88 112.3, 172.81 75.57, 200.8 43.37 M113.94 149.39 C144.07 114.73, 174.21 80.06, 200.54 49.77 M113.94 149.39 C139.46 120.04, 164.98 90.68, 200.54 49.77 M119.58 149 C141.87 123.36, 164.16 97.72, 200.93 55.42 M119.58 149 C137.01 128.94, 154.45 108.88, 200.93 55.42 M124.57 149.36 C141.81 129.53, 159.05 109.69, 200.67 61.81 M124.57 149.36 C141.19 130.24, 157.81 111.11, 200.67 61.81 M130.21 148.96 C144.43 132.6, 158.65 116.24, 201.06 67.46 M130.21 148.96 C148.83 127.54, 167.46 106.12, 201.06 67.46 M135.2 149.32 C148.78 133.7, 162.36 118.08, 200.8 73.85 M135.2 149.32 C153.48 128.3, 171.76 107.27, 200.8 73.85 M140.18 149.68 C154.67 133.02, 169.15 116.36, 200.54 80.25 M140.18 149.68 C158.49 128.63, 176.79 107.58, 200.54 80.25 M145.83 149.29 C159.45 133.61, 173.08 117.94, 200.94 85.89 M145.83 149.29 C157.5 135.86, 169.18 122.43, 200.94 85.89 M150.81 149.65 C165.68 132.55, 180.55 115.45, 200.67 92.29 M150.81 149.65 C163.21 135.39, 175.6 121.13, 200.67 92.29 M156.46 149.26 C172.17 131.18, 187.89 113.1, 201.07 97.94 M156.46 149.26 C172.42 130.89, 188.38 112.53, 201.07 97.94 M161.44 149.62 C170.44 139.27, 179.43 128.92, 200.81 104.33 M161.44 149.62 C173.85 135.34, 186.26 121.07, 200.81 104.33 M167.09 149.22 C179.59 134.84, 192.09 120.46, 200.55 110.73 M167.09 149.22 C175.76 139.24, 184.44 129.26, 200.55 110.73 M172.07 149.58 C178.75 141.91, 185.42 134.23, 200.94 116.37 M172.07 149.58 C178.5 142.19, 184.92 134.81, 200.94 116.37 M177.72 149.19 C182.54 143.64, 187.36 138.1, 200.68 122.77 M177.72 149.19 C183.74 142.26, 189.76 135.33, 200.68 122.77 M182.7 149.55 C187.35 144.2, 192 138.85, 201.07 128.42 M182.7 149.55 C189.92 141.25, 197.14 132.94, 201.07 128.42 M188.35 149.15 C190.92 146.19, 193.5 143.22, 200.81 134.81 M188.35 149.15 C192.28 144.62, 196.22 140.09, 200.81 134.81 M193.33 149.51 C196.14 146.29, 198.94 143.06, 200.55 141.21 M193.33 149.51 C195.87 146.59, 198.41 143.67, 200.55 141.21" stroke="#82c91e" stroke-width="0.5" fill="none"></path><path d="M0 0 C46.44 0, 92.89 0, 200 0 M0 0 C52.05 0, 104.11 0, 200 0 M200 0 C200 47.82, 200 95.64, 200 147 M200 0 C200 46.8, 200 93.6, 200 147 M200 147 C121.81 147, 43.62 147, 0 147 M200 147 C156.41 147, 112.82 147, 0 147 M0 147 C0 116.29, 0 85.58, 0 0 M0 147 C0 103.08, 0 59.16, 0 0" stroke="#5c940d" stroke-width="1" fill="none"></path></g><g transform="translate(535.2995209400381 20) rotate(0 90 17.5)"><text x="0" y="25" font-family="Virgil, Segoe UI Emoji" font-size="28px" fill="#000000" text-anchor="start" style="white-space: pre;" direction="ltr">Zeebe broker</text></g><g stroke-opacity="0.6" fill-opacity="0.6" stroke-linecap="round" transform="translate(546.6800269764299 73.5) rotate(0 79.5 34)"><path d="M17 0 L142 0 L149.44 1.06 L154.75 4.25 L156.61 6.64 L158.73 13.02 L159 51 L157.94 58.44 L154.75 63.75 L152.36 65.61 L149.44 66.94 L142 68 L17 68 L9.56 66.94 L4.25 63.75 L1.06 58.44 L0.27 54.98 L0.27 13.02 L2.39 6.64 L6.64 2.39 L9.56 1.06 L17 0" stroke="none" stroke-width="0" fill="#fd7e14"></path><path d="M17 0 M17 0 C64.15 0, 111.29 0, 142 0 M17 0 C43.24 0, 69.47 0, 142 0 M142 0 C153.33 0, 159 5.67, 159 17 M142 0 C153.33 0, 159 5.67, 159 17 M159 17 C159 27.82, 159 38.63, 159 51 M159 17 C159 24.86, 159 32.73, 159 51 M159 51 C159 62.33, 153.33 68, 142 68 M159 51 C159 62.33, 153.33 68, 142 68 M142 68 C97.47 68, 52.94 68, 17 68 M142 68 C103.32 68, 64.64 68, 17 68 M17 68 C5.67 68, 0 62.33, 0 51 M17 68 C5.67 68, 0 62.33, 0 51 M0 51 C0 40.78, 0 30.56, 0 17 M0 51 C0 40.67, 0 30.34, 0 17 M0 17 C0 5.67, 5.67 0, 17 0 M0 17 C0 5.67, 5.67 0, 17 0" stroke="#d9480f" stroke-width="1" fill="none"></path></g><g transform="translate(582.2995209400381 81.61949396360819) rotate(0 42.5 25)"><text x="42.5" y="18" font-family="Virgil, Segoe UI Emoji" font-size="20px" fill="#d9480f" text-anchor="middle" style="white-space: pre;" direction="ltr">debug</text><text x="42.5" y="43" font-family="Virgil, Segoe UI Emoji" font-size="20px" fill="#d9480f" text-anchor="middle" style="white-space: pre;" direction="ltr">exporter</text></g><g stroke-linecap="round"><g transform="translate(395.29952094003806 121.5) rotate(0 61.619493963608306 -0.6194939636082495)"><path d="M0 0 C20.54 -0.21, 102.7 -1.03, 123.24 -1.24 M0 0 C20.54 -0.21, 102.7 -1.03, 123.24 -1.24" stroke="#1864ab" stroke-width="2" fill="none"></path></g><g transform="translate(395.29952094003806 121.5) rotate(0 61.619493963608306 -0.6194939636082495)"><path d="M95.15 9.3 C102.99 6.36, 110.83 3.42, 123.24 -1.24 M95.15 9.3 C102.07 6.71, 108.98 4.11, 123.24 -1.24" stroke="#1864ab" stroke-width="2" fill="none"></path></g><g transform="translate(395.29952094003806 121.5) rotate(0 61.619493963608306 -0.6194939636082495)"><path d="M94.95 -11.22 C102.84 -8.43, 110.74 -5.65, 123.24 -1.24 M94.95 -11.22 C101.91 -8.76, 108.88 -6.3, 123.24 -1.24" stroke="#1864ab" stroke-width="2" fill="none"></path></g></g><g transform="translate(437.79952094003806 82) rotate(0 20 12.5)"><text x="0" y="18" font-family="Virgil, Segoe UI Emoji" font-size="20px" fill="#1864ab" text-anchor="start" style="white-space: pre;" direction="ltr">grpc</text></g><g transform="translate(244.74609941313065 33.779298758042216) rotate(0 82 17.49999999999997)"><text x="0" y="25" font-family="Virgil, Segoe UI Emoji" font-size="28px" fill="#000000" text-anchor="start" style="white-space: pre;" direction="ltr">Dev monitor</text></g><g stroke-linecap="round"><g transform="translate(402.67646535731524 204.59350678297983) rotate(0 114.18397376562825 -26.190937143850874)"><path d="M0 0 C29.36 0.48, 138.12 12.74, 176.18 2.89 C214.24 -6.96, 219.67 -48.76, 228.37 -59.09" stroke="#d9480f" stroke-width="2.5" fill="none" stroke-dasharray="8 10"></path></g><g transform="translate(402.67646535731524 204.59350678297983) rotate(0 114.18397376562825 -26.190937143850874)"><path d="M28.69 -8.76 C22.71 -6.93, 16.73 -5.11, 0 0" stroke="#d9480f" stroke-width="2.5" fill="none"></path></g><g transform="translate(402.67646535731524 204.59350678297983) rotate(0 114.18397376562825 -26.190937143850874)"><path d="M27.61 11.73 C21.86 9.29, 16.1 6.84, 0 0" stroke="#d9480f" stroke-width="2.5" fill="none"></path></g></g><g transform="translate(123.36559337673918 63.238528140928565) rotate(0 21.5 12.5)"><text x="0" y="18" font-family="Virgil, Segoe UI Emoji" font-size="20px" fill="#000000" text-anchor="start" style="white-space: pre;" direction="ltr">http</text></g><g transform="translate(515.377651126219 181.8260544209669) rotate(0 26.5 25)"><text x="0" y="18" font-family="Virgil, Segoe UI Emoji" font-size="20px" fill="#d9480f" text-anchor="start" style="white-space: pre;" direction="ltr">http </text><text x="0" y="43" font-family="Virgil, Segoe UI Emoji" font-size="20px" fill="#d9480f" text-anchor="start" style="white-space: pre;" direction="ltr"></text></g><g stroke-linecap="round"><g stroke-opacity="0.6" fill-opacity="0.6" transform="translate(85.05199877874225 100.94142382778932) rotate(0 61.76168667594118 0.34212777920282633)"><path d="M0 0 C20.59 0.11, 102.94 0.57, 123.52 0.68 M0 0 C20.59 0.11, 102.94 0.57, 123.52 0.68" stroke="#000000" stroke-width="2" fill="none"></path></g><g stroke-opacity="0.6" fill-opacity="0.6" transform="translate(85.05199877874225 100.94142382778932) rotate(0 61.76168667594118 0.34212777920282633)"><path d="M95.28 10.79 C105.44 7.15, 115.6 3.52, 123.52 0.68 M95.28 10.79 C101.96 8.4, 108.64 6.01, 123.52 0.68" stroke="#000000" stroke-width="2" fill="none"></path></g><g stroke-opacity="0.6" fill-opacity="0.6" transform="translate(85.05199877874225 100.94142382778932) rotate(0 61.76168667594118 0.34212777920282633)"><path d="M95.39 -9.73 C105.51 -5.99, 115.63 -2.24, 123.52 0.68 M95.39 -9.73 C102.05 -7.27, 108.7 -4.8, 123.52 0.68" stroke="#000000" stroke-width="2" fill="none"></path></g></g><g stroke-opacity="0.6" fill-opacity="0.6" stroke-linecap="round" transform="translate(239.89266013745748 159.44554838457475) rotate(0 79.50000000000006 34)"><path d="M17 0 L142 0 L149.44 1.06 L154.75 4.25 L156.61 6.64 L158.73 13.02 L159 51 L157.94 58.44 L154.75 63.75 L152.36 65.61 L149.44 66.94 L142 68 L17 68 L9.56 66.94 L4.25 63.75 L1.06 58.44 L0.27 54.98 L0.27 13.02 L2.39 6.64 L6.64 2.39 L9.56 1.06 L17 0" stroke="none" stroke-width="0" fill="#fd7e14"></path><path d="M17 0 M17 0 C54.03 0, 91.06 0, 142 0 M17 0 C57.76 0, 98.52 0, 142 0 M142 0 C153.33 0, 159 5.67, 159 17 M142 0 C153.33 0, 159 5.67, 159 17 M159 17 C159 27.74, 159 38.48, 159 51 M159 17 C159 25.88, 159 34.75, 159 51 M159 51 C159 62.33, 153.33 68, 142 68 M159 51 C159 62.33, 153.33 68, 142 68 M142 68 C101.35 68, 60.7 68, 17 68 M142 68 C110.42 68, 78.85 68, 17 68 M17 68 C5.67 68, 0 62.33, 0 51 M17 68 C5.67 68, 0 62.33, 0 51 M0 51 C0 42.2, 0 33.39, 0 17 M0 51 C0 40.24, 0 29.47, 0 17 M0 17 C0 5.67, 5.67 0, 17 0 M0 17 C0 5.67, 5.67 0, 17 0" stroke="#d9480f" stroke-width="1" fill="none"></path></g><g transform="translate(276.7291178827155 168.4455483845752) rotate(0 36.50000000000006 25)"><text x="36.5" y="18" font-family="Virgil, Segoe UI Emoji" font-size="20px" fill="#d9480f" text-anchor="middle" style="white-space: pre;" direction="ltr">records</text><text x="36.5" y="43" font-family="Virgil, Segoe UI Emoji" font-size="20px" fill="#d9480f" text-anchor="middle" style="white-space: pre;" direction="ltr">servlet</text></g><g stroke-linecap="round"><g transform="translate(267.10210051122203 313.95495310111585) rotate(0 50.75128431714603 47.802618099727795)" fill-rule="evenodd"><path d="M0 0 C0 0, 0 0, 0 0 M0 0 C0 0, 0 0, 0 0 M-0.26 6.4 C1.75 4.09, 3.76 1.77, 8.27 -3.41 M-0.26 6.4 C1.59 4.27, 3.44 2.14, 8.27 -3.41 M0.13 12.04 C4.83 6.64, 9.52 1.24, 16.53 -6.83 M0.13 12.04 C6.33 4.91, 12.53 -2.21, 16.53 -6.83 M-0.13 18.44 C6.24 11.11, 12.61 3.78, 21.52 -6.47 M-0.13 18.44 C8.22 8.83, 16.58 -0.78, 21.52 -6.47 M0.27 24.08 C8.44 14.68, 16.62 5.27, 27.16 -6.86 M0.27 24.08 C7.2 16.1, 14.14 8.12, 27.16 -6.86 M0 30.48 C9.43 19.64, 18.86 8.79, 33.46 -8.01 M0 30.48 C11.29 17.5, 22.57 4.52, 33.46 -8.01 M-0.26 36.88 C13.32 21.26, 26.89 5.65, 39.11 -8.41 M-0.26 36.88 C8.19 27.16, 16.64 17.44, 39.11 -8.41 M0.14 42.52 C13.02 27.7, 25.9 12.89, 44.75 -8.8 M0.14 42.52 C15.79 24.52, 31.44 6.52, 44.75 -8.8 M-0.12 48.92 C10.93 36.21, 21.98 23.5, 51.05 -9.95 M-0.12 48.92 C20.25 25.48, 40.63 2.04, 51.05 -9.95 M0.27 54.56 C14.98 37.65, 29.68 20.73, 56.04 -9.59 M0.27 54.56 C12.7 40.27, 25.12 25.97, 56.04 -9.59 M0.01 60.96 C14.18 44.66, 28.35 28.36, 61.02 -9.23 M0.01 60.96 C13.81 45.08, 27.61 29.21, 61.02 -9.23 M0.4 66.6 C20.93 42.99, 41.46 19.37, 66.01 -8.87 M0.4 66.6 C24.49 38.9, 48.57 11.2, 66.01 -8.87 M0.14 73 C22.56 47.22, 44.97 21.43, 71 -8.51 M0.14 73 C20.22 49.9, 40.3 26.8, 71 -8.51 M-0.12 79.4 C15.14 61.85, 30.4 44.3, 75.98 -8.15 M-0.12 79.4 C23.8 51.88, 47.72 24.37, 75.98 -8.15 M0.28 85.04 C24.19 57.53, 48.1 30.02, 80.32 -7.03 M0.28 85.04 C18.02 64.62, 35.77 44.21, 80.32 -7.03 M0.01 91.44 C21.03 67.26, 42.04 43.09, 84.65 -5.92 M0.01 91.44 C18 70.74, 35.99 50.05, 84.65 -5.92 M2.38 94.82 C21.24 73.12, 40.11 51.41, 88.98 -4.8 M2.38 94.82 C24.92 68.89, 47.46 42.96, 88.98 -4.8 M4.74 98.2 C25.65 74.14, 46.56 50.09, 93.31 -3.69 M4.74 98.2 C33.71 64.87, 62.67 31.55, 93.31 -3.69 M8.41 100.07 C27.87 77.69, 47.32 55.31, 96.98 -1.82 M8.41 100.07 C33.69 70.99, 58.97 41.91, 96.98 -1.82 M12.09 101.94 C38.58 71.46, 65.07 40.99, 100 0.8 M12.09 101.94 C42 67.53, 71.9 33.13, 100 0.8 M16.42 103.05 C38.95 77.14, 61.47 51.23, 103.68 2.67 M16.42 103.05 C47 67.87, 77.59 32.68, 103.68 2.67 M20.75 104.17 C40.54 81.4, 60.33 58.63, 103.42 9.07 M20.75 104.17 C41.54 80.25, 62.34 56.33, 103.42 9.07 M25.08 105.28 C56.18 69.5, 87.28 33.73, 103.81 14.71 M25.08 105.28 C54.71 71.2, 84.34 37.11, 103.81 14.71 M29.41 106.39 C44.5 89.04, 59.58 71.69, 103.55 21.11 M29.41 106.39 C50.01 82.7, 70.61 59, 103.55 21.11 M33.74 107.51 C54.6 83.52, 75.46 59.52, 103.29 27.51 M33.74 107.51 C51.18 87.45, 68.62 67.39, 103.29 27.51 M39.39 107.11 C52.53 91.99, 65.68 76.87, 103.68 33.15 M39.39 107.11 C62.09 80.99, 84.8 54.87, 103.68 33.15 M44.37 107.48 C65.05 83.69, 85.72 59.91, 103.42 39.55 M44.37 107.48 C63.79 85.14, 83.2 62.81, 103.42 39.55 M49.36 107.84 C60.72 94.77, 72.08 81.7, 103.16 45.95 M49.36 107.84 C61.66 93.69, 73.95 79.55, 103.16 45.95 M53.69 108.95 C70.19 89.97, 86.69 70.99, 103.55 51.59 M53.69 108.95 C70.28 89.87, 86.87 70.79, 103.55 51.59 M59.34 108.56 C70.33 95.91, 81.32 83.26, 103.29 57.99 M59.34 108.56 C75.7 89.73, 92.07 70.9, 103.29 57.99 M64.98 108.16 C77.95 93.24, 90.92 78.31, 103.69 63.63 M64.98 108.16 C74.73 96.95, 84.48 85.73, 103.69 63.63 M70.62 107.77 C80.65 96.23, 90.68 84.69, 103.42 70.03 M70.62 107.77 C79.48 97.57, 88.35 87.38, 103.42 70.03 M76.92 106.62 C83.84 98.66, 90.76 90.69, 103.16 76.43 M76.92 106.62 C83.3 99.28, 89.67 91.95, 103.16 76.43 M84.53 103.96 C88.73 99.13, 92.92 94.31, 103.56 82.07 M84.53 103.96 C90.71 96.85, 96.88 89.75, 103.56 82.07 M92.8 100.54 C96.21 96.62, 99.63 92.69, 103.3 88.47 M92.8 100.54 C96.26 96.56, 99.72 92.58, 103.3 88.47" stroke="#82c91e" stroke-width="0.5" fill="none"></path><path d="M0 0 C0 13.54, -0.3 65.26, 0 81.25 C0.3 97.23, -0.55 92.59, 1.78 95.94 C4.11 99.29, 8.9 99.72, 13.98 101.34 C19.05 102.95, 25.95 104.71, 32.25 105.6 C38.54 106.5, 45.71 106.71, 51.73 106.71 C57.75 106.71, 62.99 106.24, 68.36 105.61 C73.74 104.97, 78.77 104.6, 83.96 102.89 C89.16 101.18, 96.75 98.97, 99.53 95.36 C102.3 91.75, 100.27 95.29, 100.59 81.25 C100.91 67.2, 101.51 24.67, 101.43 11.07 C101.36 -2.53, 102.47 2.56, 100.15 -0.35 C97.84 -3.27, 92 -4.86, 87.54 -6.45 C83.08 -8.04, 78.82 -9.15, 73.39 -9.9 C67.97 -10.64, 60.01 -10.75, 55 -10.91 C49.99 -11.08, 49.41 -11.25, 43.32 -10.88 C37.23 -10.51, 25.68 -10.5, 18.46 -8.69 C11.24 -6.87, 3.08 -1.45, 0 0 M0 0 C0 13.54, -0.3 65.26, 0 81.25 C0.3 97.23, -0.55 92.59, 1.78 95.94 C4.11 99.29, 8.9 99.72, 13.98 101.34 C19.05 102.95, 25.95 104.71, 32.25 105.6 C38.54 106.5, 45.71 106.71, 51.73 106.71 C57.75 106.71, 62.99 106.24, 68.36 105.61 C73.74 104.97, 78.77 104.6, 83.96 102.89 C89.16 101.18, 96.75 98.97, 99.53 95.36 C102.3 91.75, 100.27 95.29, 100.59 81.25 C100.91 67.2, 101.51 24.67, 101.43 11.07 C101.36 -2.53, 102.47 2.56, 100.15 -0.35 C97.84 -3.27, 92 -4.86, 87.54 -6.45 C83.08 -8.04, 78.82 -9.15, 73.39 -9.9 C67.97 -10.64, 60.01 -10.75, 55 -10.91 C49.99 -11.08, 49.41 -11.25, 43.32 -10.88 C37.23 -10.51, 25.68 -10.5, 18.46 -8.69 C11.24 -6.87, 3.08 -1.45, 0 0" stroke="#5c940d" stroke-width="1" fill="none"></path></g></g><g stroke-linecap="round" transform="translate(266.72863823394664 301.63009907347134) rotate(0 50.62648340191515 13.765081576212367)"><path d="M0.86 11.34 C0.86 11.34, 0.86 11.34, 0.86 11.34 M0.86 11.34 C0.86 11.34, 0.86 11.34, 0.86 11.34 M1.25 16.99 C3.16 14.79, 5.08 12.58, 10.44 6.42 M1.25 16.99 C4.5 13.25, 7.74 9.52, 10.44 6.42 M4.27 19.61 C7.48 15.92, 10.69 12.22, 16.73 5.27 M4.27 19.61 C7.23 16.2, 10.19 12.8, 16.73 5.27 M7.94 21.48 C12.2 16.59, 16.45 11.7, 23.03 4.12 M7.94 21.48 C12.91 15.77, 17.87 10.06, 23.03 4.12 M11.62 23.35 C17.37 16.73, 23.13 10.11, 29.33 2.97 M11.62 23.35 C17.35 16.76, 23.07 10.17, 29.33 2.97 M15.95 24.47 C20.27 19.5, 24.59 14.53, 35.63 1.82 M15.95 24.47 C22.41 17.04, 28.86 9.61, 35.63 1.82 M20.94 24.83 C27.32 17.48, 33.7 10.14, 41.27 1.43 M20.94 24.83 C26.68 18.22, 32.42 11.62, 41.27 1.43 M25.27 25.94 C31.38 18.91, 37.49 11.88, 45.61 2.54 M25.27 25.94 C30.95 19.4, 36.64 12.86, 45.61 2.54 M28.94 27.81 C36.86 18.71, 44.77 9.6, 51.91 1.39 M28.94 27.81 C37.88 17.53, 46.81 7.25, 51.91 1.39 M35.24 26.66 C42.19 18.66, 49.14 10.67, 57.55 1 M35.24 26.66 C43.69 16.94, 52.13 7.23, 57.55 1 M40.23 27.02 C46.43 19.88, 52.64 12.74, 61.22 2.87 M40.23 27.02 C47.27 18.92, 54.31 10.82, 61.22 2.87 M43.9 28.89 C49.75 22.17, 55.59 15.45, 67.52 1.72 M43.9 28.89 C53.08 18.33, 62.26 7.78, 67.52 1.72 M49.55 28.5 C56.5 20.5, 63.44 12.51, 72.51 2.08 M49.55 28.5 C57.13 19.77, 64.72 11.04, 72.51 2.08 M53.22 30.37 C58.05 24.82, 62.87 19.27, 76.18 3.95 M53.22 30.37 C61.01 21.41, 68.8 12.45, 76.18 3.95 M60.18 28.46 C65.79 22, 71.41 15.54, 81.83 3.56 M60.18 28.46 C64.51 23.48, 68.84 18.5, 81.83 3.56 M66.48 27.31 C72.78 20.06, 79.08 12.81, 86.81 3.92 M66.48 27.31 C71.11 21.98, 75.74 16.66, 86.81 3.92 M72.78 26.16 C78.4 19.69, 84.03 13.21, 90.49 5.79 M72.78 26.16 C77.87 20.3, 82.97 14.44, 90.49 5.79 M76.45 28.03 C82.91 20.6, 89.38 13.16, 94.16 7.65 M76.45 28.03 C82.1 21.54, 87.74 15.04, 94.16 7.65 M82.75 26.88 C88.59 20.17, 94.43 13.45, 97.84 9.52 M82.75 26.88 C88.09 20.74, 93.43 14.59, 97.84 9.52 M92.33 21.96 C94.04 19.99, 95.76 18.02, 100.86 12.15 M92.33 21.96 C94.41 19.57, 96.49 17.18, 100.86 12.15" stroke="#82c91e" stroke-width="0.5" fill="none"></path><path d="M101.25 13.77 C101.25 14.48, 101.04 15.21, 100.63 15.92 C100.22 16.63, 99.59 17.34, 98.78 18.02 C97.96 18.7, 96.93 19.37, 95.74 20.01 C94.54 20.65, 93.14 21.28, 91.58 21.86 C90.03 22.44, 88.29 22.99, 86.42 23.5 C84.56 24.01, 82.52 24.48, 80.38 24.9 C78.25 25.32, 75.96 25.7, 73.61 26.03 C71.26 26.36, 68.78 26.63, 66.27 26.86 C63.76 27.08, 61.15 27.25, 58.55 27.36 C55.94 27.47, 53.27 27.53, 50.63 27.53 C47.99 27.53, 45.31 27.47, 42.71 27.36 C40.1 27.25, 37.49 27.08, 34.98 26.86 C32.47 26.63, 29.99 26.36, 27.64 26.03 C25.29 25.7, 23 25.32, 20.87 24.9 C18.73 24.48, 16.69 24.01, 14.83 23.5 C12.96 22.99, 11.22 22.44, 9.67 21.86 C8.12 21.28, 6.72 20.65, 5.52 20.01 C4.32 19.37, 3.29 18.7, 2.48 18.02 C1.66 17.34, 1.04 16.63, 0.62 15.92 C0.21 15.21, 0 14.48, 0 13.77 C0 13.05, 0.21 12.32, 0.62 11.61 C1.04 10.9, 1.66 10.19, 2.48 9.51 C3.29 8.83, 4.32 8.16, 5.52 7.52 C6.72 6.88, 8.12 6.25, 9.67 5.67 C11.22 5.09, 12.96 4.54, 14.83 4.03 C16.69 3.52, 18.73 3.05, 20.87 2.63 C23 2.21, 25.29 1.83, 27.64 1.5 C29.99 1.17, 32.47 0.9, 34.98 0.67 C37.49 0.45, 40.1 0.28, 42.71 0.17 C45.31 0.06, 47.99 0, 50.63 0 C53.27 0, 55.94 0.06, 58.55 0.17 C61.15 0.28, 63.76 0.45, 66.27 0.67 C68.78 0.9, 71.26 1.17, 73.61 1.5 C75.96 1.83, 78.25 2.21, 80.38 2.63 C82.52 3.05, 84.56 3.52, 86.42 4.03 C88.29 4.54, 90.03 5.09, 91.58 5.67 C93.14 6.25, 94.54 6.88, 95.74 7.52 C96.93 8.16, 97.96 8.83, 98.78 9.51 C99.59 10.19, 100.22 10.9, 100.63 11.61 C101.04 12.32, 101.15 13.41, 101.25 13.77 C101.36 14.12, 101.36 13.41, 101.25 13.77" stroke="#5c940d" stroke-width="1" fill="none"></path></g><g transform="translate(271.11570703197776 346.42545952299633) rotate(0 45 25)"><text x="45" y="18" font-family="Virgil, Segoe UI Emoji" font-size="20px" fill="#5c940d" text-anchor="middle" style="white-space: pre;" direction="ltr">SQLite</text><text x="45" y="43" font-family="Virgil, Segoe UI Emoji" font-size="20px" fill="#5c940d" text-anchor="middle" style="white-space: pre;" direction="ltr">InMemory</text></g><g stroke-linecap="round"><g transform="translate(314.3343503208632 250.6784407500386) rotate(0 0.9205690016749486 24.647568923466622)"><path d="M0 0 C0.31 8.22, 1.53 41.08, 1.84 49.3 M0 0 C0.31 8.22, 1.53 41.08, 1.84 49.3" stroke="#5c940d" stroke-width="2" fill="none"></path></g><g transform="translate(314.3343503208632 250.6784407500386) rotate(0 0.9205690016749486 24.647568923466622)"><path d="M-7.45 26.45 C-4.85 32.84, -2.25 39.23, 1.84 49.3 M-7.45 26.45 C-5.48 31.31, -3.5 36.17, 1.84 49.3" stroke="#5c940d" stroke-width="2" fill="none"></path></g><g transform="translate(314.3343503208632 250.6784407500386) rotate(0 0.9205690016749486 24.647568923466622)"><path d="M9.41 25.82 C7.29 32.39, 5.17 38.95, 1.84 49.3 M9.41 25.82 C7.8 30.81, 6.19 35.81, 1.84 49.3" stroke="#5c940d" stroke-width="2" fill="none"></path></g></g></svg>